<?xml version="1.0" standalone="no"?>
<!DOCTYPE svg PUBLIC "-//W3C//DTD SVG 20010904//EN"
 "http://www.w3.org/TR/2001/REC-SVG-20010904/DTD/svg10.dtd">
<svg version="1.0" xmlns="http://www.w3.org/2000/svg"
 width="120.000000pt" height="120.000000pt" viewBox="0 0 120.000000 120.000000"
 preserveAspectRatio="xMidYMid meet">
<metadata>
Created by potrace 1.14, written by Peter Selinger 2001-2017
</metadata>
<g transform="translate(0.000000,120.000000) scale(0.100000,-0.100000)"
fill="#000000" stroke="none">
<path d="M838 1191 c-1 -4 -75 -70 -163 -145 -88 -76 -176 -152 -196 -169 -19
-18 -61 -54 -93 -82 -32 -27 -68 -58 -80 -68 -11 -10 -43 -37 -70 -60 -120
-102 -139 -122 -132 -145 7 -22 10 -22 217 -22 115 0 209 -2 209 -5 0 -3 -52
-106 -115 -229 -63 -124 -115 -232 -115 -240 0 -22 48 -32 63 -14 7 8 59 55
117 104 58 49 110 94 116 99 6 6 35 31 65 57 30 25 63 54 75 65 67 58 220 190
258 223 94 79 109 96 102 118 -7 22 -10 22 -217 22 -115 0 -209 2 -209 5 0 3
52 107 116 231 119 232 129 264 79 264 -13 0 -25 -4 -27 -9z"/>
</g>
</svg>
